C:\GBW_MyPrograms\KinderuniversiteitApp\Resultaten\Ellis_1010\Aarde\Aarde_v2.mot
version=1
nRows=9
nColumns=29
inDegrees=yes
endheader
                time	         pelvis_tilt	           pelvis_tx	           pelvis_ty	       hip_flexion_l	       hip_flexion_r	        knee_angle_l	        knee_angle_r	       ankle_angle_l	       ankle_angle_r	    lumbar_extension	hamstrings_r/activation	bifemsh_r/activation	glut_max_r/activation	iliopsoas_r/activation	rect_fem_r/activation	  vasti_r/activation	gastroc_r/activation	 soleus_r/activation	tib_ant_r/activation	hamstrings_l/activation	bifemsh_l/activation	glut_max_l/activation	iliopsoas_l/activation	rect_fem_l/activation	  vasti_l/activation	gastroc_l/activation	 soleus_l/activation	tib_ant_l/activation	
          0.48110346	         -8.02833725	          0.63986761	          0.89027370	         30.35940249	         -9.21935750	         -7.66012198	        -12.25586486	          8.54914284	          4.89547796	          1.94011786	          0.05000000	          0.13253241	          0.05000000	          0.53576265	          0.05000000	          0.05000000	          0.19560568	          0.28213269	          0.05000000	          0.22601992	          0.05000000	          0.05697908	          0.05000000	          0.06333113	          0.07466632	          0.05355631	          0.05000000	          0.23104788	
          0.49072553	         -8.03973467	          0.65572419	          0.88980758	         29.50070233	         -8.44288074	         -7.79339237	        -15.37297822	          8.22402869	          3.75895913	          2.31596657	          0.05000002	          0.11421586	          0.05000000	          0.46171795	          0.05000000	          0.05000000	          0.16857214	          0.24314074	          0.05000000	          0.19765550	          0.05866937	          0.10647104	          0.05000000	          0.05457849	          0.06897953	          0.05961703	          0.05801838	          0.21346850	
          0.50034760	         -8.04875343	          0.67154217	          0.88942319	         28.63554626	         -7.43221169	         -8.08554318	        -18.82413029	          7.86871123	          2.22174687	          2.68610435	          0.05000000	          0.09843074	          0.06160526	          0.39790655	          0.05000000	          0.05000000	          0.14527474	          0.20953764	          0.05000000	          0.17033866	          0.06732266	          0.15177645	          0.05000000	          0.05000000	          0.10728841	          0.05137770	          0.05000000	          0.27551768	
          0.50996967	         -8.06069011	          0.68700347	          0.88934675	         27.83948093	         -6.17118289	         -8.42817314	        -22.55387433	          7.43032995	          0.23386881	          3.01615143	          0.05000000	          0.08482719	          0.05309115	          0.34291415	          0.05849617	          0.05000000	          0.12519715	          0.18057864	          0.25632342	          0.14679712	          0.05801838	          0.20781481	          0.05000000	          0.05000000	          0.19157085	          0.05000000	          0.05000000	          0.29791298	
          0.51959174	         -8.07820651	          0.70185736	          0.88962231	         27.13806730	         -4.71519259	         -8.85942418	        -26.42071676	          7.06109832	         -1.46454712	          3.27747422	          0.05000000	          0.07310371	          0.05000000	          0.29552194	          0.15265501	          0.05000000	          0.10789436	          0.15562190	          0.22089842	          0.12650913	          0.05000000	          0.22127653	          0.05000000	          0.05000000	          0.24414152	          0.05000000	          0.05000000	          0.32230441	
          0.52921381	         -8.10307413	          0.71607086	          0.89029955	         26.49389997	         -3.18973085	         -9.31272784	        -30.07966406	          6.79920335	         -1.84901770	          3.46854953	          0.05000000	          0.08338842	          0.05000000	          0.25467954	          0.21917934	          0.05000000	          0.09298290	          0.13411428	          0.28274678	          0.11387583	          0.05000000	          0.21448281	          0.05000000	          0.05000000	          0.26809693	          0.05000000	          0.05000000	          0.32207287	
          0.53883588	         -8.13374560	          0.72975772	          0.89146108	         25.85269954	         -1.66834213	         -9.71049571	        -33.31455678	          6.66233890	         -1.73366295	          3.60286072	          0.05540594	          0.12875907	          0.05000000	          0.21948173	          0.28797827	          0.05000000	          0.08013226	          0.11557911	          0.29189722	          0.10516551	          0.05000000	          0.20696314	          0.05000000	          0.05000000	          0.27062706	          0.05000000	          0.05000000	          0.31736415	
          0.54845795	         -8.16884955	          0.74303955	          0.89306603	         25.17187066	         -0.18755884	         -9.98957247	        -36.04495970	          6.62208906	         -1.42666670	          3.69465940	          0.06993890	          0.17189994	          0.05000000	          0.18914841	          0.33818174	          0.05000000	          0.07235903	          0.09960558	          0.28011729	          0.10116486	          0.05000000	          0.19216127	          0.05000000	          0.05000000	          0.25996233	          0.05000000	          0.05000000	          0.30585090	
          0.55808002	         -8.20625960	          0.75601560	          0.89501417	         24.42937085	          1.23806576	        -10.12318145	        -38.26991903	          6.65024375	         -0.97321102	          3.75406030	          0.07779647	          0.22258955	          0.05000000	          0.16300729	          0.37073887	          0.05000000	          0.07047309	          0.08583966	          0.26640088	          0.09962703	          0.05000000	          0.17567666	          0.05000000	          0.05000000	          0.24260585	          0.05000000	          0.05000000	          0.29249055	
